<svg xmlns="http://www.w3.org/2000/svg" width="210" height="60" viewBox="0 0 210 60">
  <defs>
    <style>
      .cls-1 {
        fill: #fff;
        fill-rule: evenodd;
      }
    </style>
  </defs>
  <path id="Live_Socer" data-name="Live Socer" class="cls-1" d="M0,16.877V46.13h16.46v-5.5H7.13V16.877H0ZM19.879,46.13H27V22.878H19.879V46.13Zm3.584-25.67a3.87,3.87,0,1,0,0-7.709A3.873,3.873,0,1,0,23.463,20.461Zm6.5,2.417L38.213,46.13h8.793l8.251-23.253H47.672L42.63,39.463,37.588,22.878H29.962ZM68.5,28.253c2.375,0,4.376,1.459,4.376,4H63.963A4.407,4.407,0,0,1,68.5,28.253ZM79.631,38.421H72.047a3.789,3.789,0,0,1-3.709,2.25c-2.292,0-4.167-1.417-4.417-4.459H80.048a18.019,18.019,0,0,0,.125-2.084c0-7.084-4.792-11.585-11.585-11.585-6.917,0-11.751,4.584-11.751,11.96s4.917,11.96,11.751,11.96C74.381,46.464,78.506,42.963,79.631,38.421Zm34.375-1c0-9.793-14.46-7.5-14.46-12.585,0-1.834,1.291-2.709,3-2.667a3.166,3.166,0,0,1,3.375,3.042h7.71c-0.292-5.584-4.584-8.751-10.96-8.751C96.545,16.46,92,19.544,92,25.086c-0.083,10.376,14.543,7.459,14.543,12.877,0,1.709-1.333,2.75-3.417,2.75A3.354,3.354,0,0,1,99.5,37.379H91.92c0.208,5.917,5.126,9.043,11.418,9.043C110.172,46.422,114.006,42.338,114.006,37.421ZM143.5,34.5c0,7.376,4.834,11.96,11.668,11.96,5.834,0,9.96-3.375,11.168-8.751h-7.584a3.617,3.617,0,0,1-3.709,2.667c-2.542,0-4.292-2-4.292-5.876s1.75-5.876,4.292-5.876a3.673,3.673,0,0,1,3.709,2.667h7.584c-1.208-5.542-5.334-8.751-11.168-8.751C148.336,22.544,143.5,27.17,143.5,34.5Zm36.876-6.251c2.376,0,4.376,1.459,4.376,4h-8.918A4.408,4.408,0,0,1,180.378,28.253Zm11.127,10.168H183.92a3.788,3.788,0,0,1-3.708,2.25c-2.292,0-4.167-1.417-4.418-4.459h16.127a17.864,17.864,0,0,0,.125-2.084c0-7.084-4.792-11.585-11.584-11.585-6.918,0-11.752,4.584-11.752,11.96s4.918,11.96,11.752,11.96C186.254,46.464,190.38,42.963,191.505,38.421Zm11.415-3.084c0-4,1.958-5.167,5.334-5.167h1.958V22.628a8.667,8.667,0,0,0-7.292,4.125V22.878h-7.126V46.13h7.126V35.337Z"/>
  <path class="cls-1" d="M127.66,17c7.892-.158,12.842,4.2,15.148,9.634a22.3,22.3,0,0,1,.85,2.631q0.117,0.716.232,1.431a9.492,9.492,0,0,1,.039,2.592c-0.123.543,0.008,1.041-.116,1.548a22.668,22.668,0,0,1-1,3.6,15.867,15.867,0,0,1-9.042,8.628,21.726,21.726,0,0,1-3.169.774c-0.415.1-.882,0.026-1.275,0.116a8.279,8.279,0,0,1-2.164-.077c-0.527-.12-0.979-0.027-1.469-0.155a22.126,22.126,0,0,1-3.284-1.045,15.379,15.379,0,0,1-7.922-7.622,24.731,24.731,0,0,1-.85-2.437,12.989,12.989,0,0,1-.5-5.494l0.078-1.006a20.856,20.856,0,0,1,.734-2.9,15.865,15.865,0,0,1,8.617-9.053,21.873,21.873,0,0,1,3.362-.967Zm-3.9,1.78a3,3,0,0,1-.657.232,12.745,12.745,0,0,0-1.623.774,16.152,16.152,0,0,0-3.091,2.36l-0.58.542a10.3,10.3,0,0,0-.966,2.089,5.7,5.7,0,0,0-.541,1.509,10.588,10.588,0,0,1,1.082.658c0.425,0.261.852,0.434,1.275,0.7a5.685,5.685,0,0,0,1.044.658,6.972,6.972,0,0,0,1.314-.774,40.266,40.266,0,0,1,4.057-1.934,6.009,6.009,0,0,1,.425-1.277c0.284-.841.466-1.65,0.773-2.476a7.765,7.765,0,0,0,.5-1.509A9.673,9.673,0,0,0,123.757,18.783ZM134,19.093l-0.039.7a2.7,2.7,0,0,1,.58.658c0.358,0.475.832,0.869,1.2,1.354,0.523,0.693,1.294,1.28,1.817,1.973a6.734,6.734,0,0,0,.966,1.122,3.4,3.4,0,0,0,.425.116,12.7,12.7,0,0,1,1.623.774,6.257,6.257,0,0,0,1.12.7V26.444a6.053,6.053,0,0,1-.5-1.006c-0.273-.45-0.546-0.92-0.85-1.354a14.643,14.643,0,0,0-4.405-4.024A6.3,6.3,0,0,0,134,19.093Zm-2.551,1.122a4.566,4.566,0,0,1-1.121.077c-0.822.18-1.785,0.142-2.589,0.31q-0.675,2.07-1.352,4.14a6.484,6.484,0,0,0-.5,1.548,2.9,2.9,0,0,1,.927.967l0.27,0.232c0.47,0.623,1.084,1.128,1.546,1.741a3.572,3.572,0,0,0,.928,1.006,7.307,7.307,0,0,1,1.507-.155c1.188-.264,2.559-0.162,3.748-0.426l1.353-.116a5.427,5.427,0,0,0,.386-1.006c0.287-.684.514-1.395,0.811-2.128a3.056,3.056,0,0,0,.31-1.006,2.548,2.548,0,0,1-.541-0.619c-0.276-.366-0.645-0.669-0.928-1.045-0.262-.348-0.665-0.62-0.927-0.967-0.684-.906-1.493-1.709-2.242-2.553h-1.584ZM115.719,27.1c-0.354.72-1.01,1.321-1.313,2.089a8.539,8.539,0,0,0-.194,1.238,12.425,12.425,0,0,0,.271,5.494,7.019,7.019,0,0,0,.386,1.431,4.675,4.675,0,0,0,1.082.929,3.111,3.111,0,0,0,1.16.774c0.287-.51.659-0.985,0.966-1.47,0.328-.52.589-1.036,0.927-1.548a2.892,2.892,0,0,0,.773-1.393,4.755,4.755,0,0,1-.232-1.315,19.1,19.1,0,0,1-.309-4.178,13.608,13.608,0,0,1-1.468-.89c-0.423-.263-0.851-0.436-1.276-0.7A3.327,3.327,0,0,0,115.719,27.1Zm20.481,3.4a11.888,11.888,0,0,1-1.893.193c-0.706.156-1.49,0.065-2.242,0.232a13.876,13.876,0,0,1-2.666.271c-0.514.937-.993,1.956-1.546,2.863l-0.27.619a4.737,4.737,0,0,0-.773,1.47,9,9,0,0,1,.811,1.431c0.6,0.973,1.181,2.006,1.778,2.979a7.824,7.824,0,0,0,.734,1.315h0.387a10.415,10.415,0,0,1,1.739-.077,23.792,23.792,0,0,0,3.4-.5,23.829,23.829,0,0,1,1.43-2.631c0.322-.53.49-1.1,0.811-1.625,0.207-.34.363-0.726,0.58-1.083a2.306,2.306,0,0,0,.464-0.928,8.678,8.678,0,0,1-.7-1.354c-0.45-.741-0.92-1.5-1.391-2.205A3.237,3.237,0,0,0,136.2,30.506Zm6.685,3.134a9.6,9.6,0,0,1-2.395,1.509,4.488,4.488,0,0,0-.5.194,1.71,1.71,0,0,0-.309.58c-0.3.5-.535,1.067-0.85,1.586-0.533.879-.926,1.851-1.469,2.747a9.6,9.6,0,0,0-.85,1.509A4.071,4.071,0,0,0,136.818,43a4.222,4.222,0,0,0,.232,1.2,2.753,2.753,0,0,1,.657-0.5c0.183-.136.322-0.367,0.5-0.5a5.359,5.359,0,0,0,1-.929c0.359-.474.78-0.908,1.121-1.393a15.231,15.231,0,0,0,1.971-4.1c0.175-.529.317-1.164,0.463-1.741l0.039-.5A1.815,1.815,0,0,0,142.885,33.64Zm-22.451,2.012a5.378,5.378,0,0,1-.773,1.2c-0.431.651-.781,1.312-1.2,1.973a3.134,3.134,0,0,0-.695,1.161,8.351,8.351,0,0,1,.695,1.238c0.391,0.63.848,1.229,1.275,1.818a1.542,1.542,0,0,0,.812.851,11.114,11.114,0,0,0,1.971.348c0.9,0.231,1.87.267,2.821,0.5a9.4,9.4,0,0,0,1.97.348,6.864,6.864,0,0,1,.657-0.851c0.288-.4.528-0.8,0.812-1.2a3.141,3.141,0,0,0,.5-0.7,8.506,8.506,0,0,1-.773-1.354c-0.54-.886-1.08-1.825-1.623-2.708a4.494,4.494,0,0,0-.966-1.509,11.205,11.205,0,0,0-1.739-.271A35.057,35.057,0,0,1,120.434,35.652Zm1,9.44a3.513,3.513,0,0,0,1.236.619,20.753,20.753,0,0,0,2.7.928l1.7,0.271a7.155,7.155,0,0,0,1.971,0,17.926,17.926,0,0,1-1.971-.851l-0.463-.039c-0.55-.139-1.15-0.158-1.739-0.309-0.546-.141-1.152-0.159-1.739-0.309A8.927,8.927,0,0,0,121.439,45.092Z"/>
</svg>
